:SAMPLES-PER-SECOND 30
:FRAME-RANGE 1-564
:FULLY-SPECIFIED
:DEGREES
265
root  14.3897 39.6678 2.59678 -177.77 -65.0747 -178.942
RightUpLeg  -10.2005 -18.0355 0.181338
RightLeg  32.0131 -7.0449 -4.96159
RightFoot  -14.7447 0.0667525 5.61032
RightToes  1.21801e-010 1.2921e-014 -6.02303e-014
Spine  -5.42572 4.11996 6.11067
Spine1  8.10904 5.9779 -9.0372
HEad  18.6289 -8.3196 6.2061
LeftShoulder1  1.09908 -2.01211 -13.9779
LeftArm  -7.48261 -15.9943 -43.9351
LeftForeArm  -8.23096 -30.1198 -6.99831
LeftHand  -0.0177159 5.58259 4.6033
RightShoulder  2.93968 8.29499 18.9819
RightArm  -16.0446 43.2956 64.2765
RightForeArm  30.6016 5.08903 4.38696
RightHand  0.000571608 -5.62035 -10.5086
LeftUpLeg  -11.9706 -3.75828 0.205165
LeftLeg  16.2202 -8.22822 -0.65607
LeftFoot  -6.86674 -0.00986393 1.31041
LeftToes  1.70735e-010 3.74918e-011 3.68705e-011
266
root  14.2038 39.7055 2.36215 -177.682 -63.2595 -179.064
RightUpLeg  -11.1849 -18.8654 -0.899958
RightLeg  32.3365 -7.77009 -5.50547
RightFoot  -14.5624 0.0558717 5.49747
RightToes  1.21801e-010 1.2921e-014 -6.02303e-014
Spine  -5.77992 3.89448 5.29364
Spine1  8.39189 5.61315 -8.47357
HEad  19.121 -10.4602 6.63607
LeftShoulder1  1.10623 -1.94223 -14.4298
LeftArm  -4.16348 -13.46 -44.5632
LeftForeArm  -8.871 -28.3275 -6.58236
LeftHand  -0.0262314 5.39033 2.9252
RightShoulder  2.85178 7.64766 19.7281
RightArm  -18.5189 40.7314 64.1021
RightForeArm  34.4636 4.47498 3.42127
RightHand  0.0671441 -6.15781 -13.0681
LeftUpLeg  -10.9323 -1.31643 0.354139
LeftLeg  15.5467 -8.85838 -0.694939
LeftFoot  -7.25535 0.000500123 1.20987
LeftToes  1.70735e-010 3.74918e-011 3.68705e-011
267
root  14.0282 39.7611 2.09365 -177.867 -61.1496 -178.818
RightUpLeg  -12.024 -19.8805 -1.94433
RightLeg  31.4723 -7.92938 -5.43667
RightFoot  -13.9324 0.0306216 5.53078
RightToes  1.21801e-010 1.2921e-014 -6.02303e-014
Spine  -6.15759 3.60066 4.48266
Spine1  8.62169 5.14693 -7.85704
HEad  19.4956 -12.3465 7.05385
LeftShoulder1  1.12532 -1.95327 -14.7794
LeftArm  0.424685 -10.9664 -45.564
LeftForeArm  -9.64958 -26.2225 -6.11575
LeftHand  -0.0296464 5.22449 3.10928
RightShoulder  2.77514 7.07228 20.4821
RightArm  -21.1311 37.6393 63.604
RightForeArm  36.8566 3.05785 2.29996
RightHand  0.0960492 -6.29224 -14.6446
LeftUpLeg  -9.6625 1.38347 0.842954
LeftLeg  14.3837 -9.25726 -0.77593
LeftFoot  -7.41015 -0.00867456 1.5521
LeftToes  1.70735e-010 3.74918e-011 3.68705e-011
268
root  13.8344 39.7952 1.81472 -177.414 -58.4422 -179.066
RightUpLeg  -13.2422 -20.0209 -3.33615
RightLeg  30.1677 -7.67604 -5.02283
RightFoot  -13.3487 -0.00352485 4.96573
RightToes  1.21801e-010 1.2921e-014 -6.02303e-014
Spine  -6.50356 3.27431 3.7724
Spine1  8.52807 4.76956 -7.70953
HEad  19.8682 -13.7505 7.32338
LeftShoulder1  1.14019 -1.95112 -15.0992
LeftArm  6.58675 -8.48738 -46.3959
LeftForeArm  -11.382 -24.7652 -5.86096
LeftHand  -0.0330735 5.01305 2.58146
RightShoulder  2.70154 6.41521 21.6015
RightArm  -22.9665 34.3723 62.4182
RightForeArm  38.3898 0.867582 1.57288
RightHand  0.161655 -6.72536 -15.5777
LeftUpLeg  -8.44789 2.65196 1.06247
LeftLeg  13.1188 -7.97506 -0.365915
LeftFoot  -7.79082 0.0239347 0.739544
LeftToes  1.70735e-010 3.74918e-011 3.68705e-011
269
root  13.674 39.8039 1.50935 -177.696 -55.8099 -178.586
RightUpLeg  -14.2318 -20.1659 -4.29462
RightLeg  28.0369 -7.14716 -4.33006
RightFoot  -12.2164 -0.0444825 5.03077
RightToes  1.21801e-010 1.2921e-014 -6.02303e-014
Spine  -6.41804 2.74084 3.27918
Spine1  8.2154 4.09918 -7.23449
HEad  19.4597 -14.8525 7.51851
LeftShoulder1  1.18675 -2.07666 -15.4926
LeftArm  13.5104 -6.43892 -47.4482
LeftForeArm  -13.0315 -23.5152 -5.68452
LeftHand  -0.0249905 5.45323 2.90794
RightShoulder  2.5927 5.77289 22.4126
RightArm  -25.3311 30.6724 61.3251
RightForeArm  40.5937 -1.03826 0.561418
RightHand  0.214899 -7.10476 -15.7683
LeftUpLeg  -7.36934 3.57433 1.78086
LeftLeg  12.4316 -6.29132 -0.0530241
LeftFoot  -8.34223 0.0395485 0.404973
LeftToes  1.70735e-010 3.74918e-011 3.68705e-011
270
root  13.5133 39.8099 1.16948 -177.88 -52.6288 -178.154
RightUpLeg  -15.4618 -19.6786 -5.06703
RightLeg  25.535 -6.84107 -3.76337
RightFoot  -10.2534 -0.118053 5.094
RightToes  1.21801e-010 1.2921e-014 -6.02303e-014
Spine  -6.64435 2.21794 2.93727
Spine1  8.51903 3.44632 -6.56947
HEad  18.2308 -14.6615 7.59132
LeftShoulder1  1.24859 -2.2338 -16.0295
LeftArm  20.2156 -4.7004 -48.5717
LeftForeArm  -12.6537 -22.7008 -5.72913
LeftHand  -0.0314752 3.88942 0.85351
RightShoulder  2.46117 5.18136 22.8729
RightArm  -28.143 27.2322 60.7428
RightForeArm  42.7043 -2.78186 -0.858383
RightHand  0.35364 -7.88095 -17.2599
LeftUpLeg  -6.30428 4.27336 2.50937
LeftLeg  11.981 -4.20067 0.329441
LeftFoot  -9.2152 0.0757603 -1.10087
LeftToes  1.70735e-010 3.74918e-011 3.68705e-011
271
root  13.3592 39.8195 0.786837 -178.074 -49.315 -177.696
RightUpLeg  -16.4216 -18.7891 -5.76482
RightLeg  22.1127 -6.54678 -3.12538
RightFoot  -7.49963 -0.240306 5.63869
RightToes  1.21801e-010 1.2921e-014 -6.02303e-014
Spine  -6.5626 1.46023 2.63526
Spine1  8.45813 2.53025 -5.79894
HEad  17.0105 -13.603 7.3944
LeftShoulder1  1.33772 -2.53246 -16.4382
LeftArm  25.6788 -2.37283 -50.013
LeftForeArm  -11.9024 -22.5796 -5.75011
LeftHand  -0.0242554 2.95701 0.403865
RightShoulder  2.3546 4.65518 23.4779
RightArm  -29.7077 23.3382 60.3917
RightForeArm  43.3541 -3.31108 -1.25184
RightHand  0.359612 -7.91391 -17.3069
LeftUpLeg  -5.08582 5.0862 3.3491
LeftLeg  11.4639 -1.92233 0.577812
LeftFoot  -9.9149 0.0835987 -1.93617
LeftToes  1.70735e-010 3.74918e-011 3.68705e-011
